<svg width="568" height="128" viewBox="0 0 568 128" fill="none" xmlns="http://www.w3.org/2000/svg">
<path d="M84.2 0.399994H0.700012V84.2C0.700012 108.1 20.2 127.6 44.1 127.6C67.1 127.6 85.9 109.7 87.4 87.1C97.9 86.4 107.7 82 115.2 74.5C123.4 66.3 127.9 55.4 127.9 43.8C127.9 19.8 108.3 0.399994 84.2 0.399994ZM84.3 28.6H44.1C41.3 28.6 39.1 26.4 39.1 23.6C39.1 20.8 41.3 18.6 44.1 18.6H84.3C98.2 18.6 109.8 30 109.7 43.9C109.6 57.4 98.9 68.5 85.4 69H64.3C61.5 69 59.3 66.8 59.3 64C59.3 61.2 61.5 59 64.3 59H84.5C92.9 59 99.8 52.1 99.7 43.6C99.6 35.3 92.7 28.6 84.3 28.6ZM9.00002 22.8C9.40001 20.4 11.4 18.6 13.9 18.6H17.3H18.9H23.9H28.9V23.6V28.6V40.1V84.2C28.9 90.8 33.2 96.5 39.1 98.5V38.8H84.7C87.5 38.8 89.7 41 89.7 43.8C89.7 46.6 87.5 48.8 84.7 48.8H49.1V98.5C55.1 96.4 59.3 90.6 59.3 84V83.9C59.3 81.1 61.5 78.9 64.3 78.9C67.1 78.9 69.3 81.1 69.3 83.9V84.2C69.3 98.1 58 109.4 44 109.4C30.1 109.4 18.9 97.9 18.9 84V28.6H17.3H13.9C11.4 28.6 9.30002 26.8 9.00002 24.4C9.00002 24.2 8.90001 23.9 8.90001 23.7C8.90001 23.5 9.00002 23.1 9.00002 22.8Z" fill="#5335D9"/>
<path d="M188.4 21.5C175.3 21.5 162.3 21.6 149.2 21.6V104.7H164.9V80.3H188.4C229.1 80.3 229 21.5 188.4 21.5ZM188.4 65.9H164.9V36.5H188.4C208.3 36.5 208.4 65.9 188.4 65.9Z" fill="#180C47"/>
<path d="M242.8 21.8H228.4V104.7H242.8V21.8Z" fill="#180C47"/>
<path d="M301.3 54.3C298 48.5 290.5 44.8 282.7 44.8C265.6 44.7 252.2 55.2 252.2 75.4C252.2 95.9 265 106.6 282.3 106.5C288.8 106.4 298 103.1 301.3 96.2L302 104.7H315.6V46.2H301.7L301.3 54.3ZM284 93.2C274.4 93.2 266.7 86.6 266.7 75.4C266.7 64.2 274.4 57.7 284 57.7C306.8 57.7 306.8 93.2 284 93.2Z" fill="#180C47"/>
<path d="M360.6 45.3C353.2 45.3 347.3 48.3 341.4 54.1L340.5 46.2H327.6V104.8H342V74.9C342 66 348.1 58.5 356.9 58.5C366.2 58.5 371 65.3 371 74.2V104.8H385.5V74C385.4 55.6 374.4 45.3 360.6 45.3Z" fill="#180C47"/>
<path d="M443.2 53.1V46.2H396.4V59.4H422.2L394.2 98.6V104.7H443.5V90.5H416.3L443.2 53.1Z" fill="#180C47"/>
<path d="M480.6 44.4C461.6 44.4 449.5 57.2 449.5 75C449.5 93.7 461.5 106.2 481.7 106.2C490.6 106.2 500.7 103.1 506.9 96.7L497.6 87.6C494.3 91 487.3 93.1 481.9 93.1C471.7 93.1 465.4 87.9 464.5 80.6H510.2C512.4 56.5 500.2 44.4 480.6 44.4ZM464.7 68.6C466.8 61 473.2 57.2 481.1 57.2C489.4 57.2 495.3 61 496.3 68.6H464.7Z" fill="#180C47"/>
<path d="M552.2 44.7C546.3 44.7 540.2 45.8 535.7 53L534.6 46.2H521.2V104.7H535.7V73.9C535.7 63.1 542.7 59.1 550.3 59.1C555 59.1 557.8 60.4 560.7 62.9L567.2 50.3C564.1 47 558.3 44.7 552.2 44.7Z" fill="#180C47"/>
</svg>
